<svg xmlns="http://www.w3.org/2000/svg" xmlns:xlink="http://www.w3.org/1999/xlink" width="189" height="45" viewBox="0 0 189 45">
    <defs>
        <path id="e69hjsabwa" d="M0.339 0.178L7.328 0.178 7.328 11.478 0.339 11.478z"/>
        <path id="7tb7br9n9c" d="M0.107 0.11L4.568 0.11 4.568 2.467 0.107 2.467z"/>
        <path id="2haolwqrhe" d="M0 0.551L0.575 3.002 0.575 19.549 0 22 11.218 22 11.391 21.447 0.553 21.447 1.128 18.996 1.128 2.448 0.683 0.551z"/>
        <path id="cxlxhzpnog" d="M3.833 0.551L0.095 4.534 0.095 18.017 3.833 22 11.311 22 11.83 21.447 4.387 21.447 0.648 17.464 0.648 3.98 3.867 0.551z"/>
        <path id="4lutuq44fi" d="M1.185 0.2L0.365 0.638 0.204 0.982 0.632 0.754 2.934 0.754 4.084 1.367 4.659 2.593 4.659 12.704 4.383 13.295 4.774 13.087 5.212 12.151 5.212 2.04 4.637 0.813 3.487 0.2z"/>
        <path id="a7lcvbcyuk" d="M0.219 0.551L0.938 3.002 0.938 19.549 0.362 22 5.252 22 5.122 21.447 0.916 21.447 1.491 18.996 1.491 2.448 0.934 0.551z"/>
        <path id="14kjw02com" d="M0.297 0.551L0.872 3.002 0.872 9.001 1.426 10.179 1.426 2.448 0.98 0.551z"/>
        <path id="4okr0zk41o" d="M0.488 1.974L6.083 13.895 9.822 13.895 9.822 13.341 6.636 13.341 0.488 0.241z"/>
        <path id="8i96ius8fq" d="M1.284 0.507L0.178 1.097 0.016 1.442 0.731 1.061 4.673 1.061 7.635 2.132 7.369 1.282 5.226 0.507z"/>
        <path id="64fw8hcr8s" d="M0.574 0.515L1.723 2.965 1.723 7.154 1.852 7.154 2.276 6.702 2.276 2.412 1.387 0.515z"/>
        <path id="kmgulxv1cu" d="M0.34 0.79L0.34 13.964 4.08 17.947 11.271 17.947 11.79 17.394 4.634 17.394 0.893 13.411 0.893 0.236z"/>
        <path id="03r87auhww" d="M0.03 0.551L0.606 3.002 0.606 19.549 0.03 22 11.537 22 12.056 21.447 0.584 21.447 1.159 18.995 1.159 2.448 0.713 0.551z"/>
        <path id="4pk9bnmhcy" d="M0.151 0.047L0.151 0.6 2.871 0.6 4.021 1.214 4.597 2.44 4.597 3.36 4.32 3.948 4.711 3.739 5.15 2.806 5.15 1.886 4.574 0.66 3.424 0.047z"/>
        <path id="v87cz8mz8A" d="M0.151 0.216L0.151 0.768 2.582 0.768 4.021 1.534 4.597 2.76 4.597 4.6 4.321 5.187 4.711 4.98 5.15 4.046 5.15 2.207 4.574 0.981 3.135 0.216z"/>
        <path id="1d3xa2k61C" d="M0.009 0.551L0.584 3.002 0.584 19.549 0.009 22 5.475 22 5.345 21.447 0.562 21.447 1.137 18.995 1.137 2.448 0.692 0.551z"/>
        <path id="f6tft0y1pE" d="M0.13 0.436L0.13 0.99 1.554 0.99 2.129 1.296 4.575 9.263 10.04 9.263 9.739 8.71 5.128 8.71 2.682 0.743 2.107 0.436z"/>
        <path id="a8e4zzqtbG" d="M0.13 0.2L0.13 0.754 2.849 0.754 4.287 1.521 4.861 2.746 4.861 4.585 4.585 5.175 4.976 4.965 5.415 4.032 5.415 2.193 4.839 0.967 3.402 0.2z"/>
        <path id="4rslzozg2I" d="M0.599 0.026L0.469 0.58 5.367 0.58 5.656 0.886 6.231 3.338 5.943 5.789 11.84 5.789 11.581 5.236 6.496 5.236 6.785 2.784 6.209 0.333 5.921 0.026z"/>
        <path id="yoacdtujnK" d="M5.409 0.551L5.84 2.542 1.526 19.549 0.376 22 5.696 22 5.631 21.447 0.929 21.447 2.08 18.995 6.394 1.989 6.082 0.551z"/>
        <path id="420ljl3u7M" d="M0.136 1.594L1.593 8.04 2.272 8.04 0.475 0.093z"/>
        <path id="c0e3yahx3O" d="M0.292 0.551L1.011 3.002 1.011 19.549 0.436 22 5.325 22 5.195 21.447 0.989 21.447 1.565 18.996 1.565 2.448 1.008 0.551z"/>
        <path id="45lylv1c4Q" d="M0.371 0.551L0.944 3.002 0.944 9 1.498 10.179 1.498 2.448 1.054 0.551z"/>
        <path id="do5nd30tyS" d="M0.56 1.974L6.155 13.895 9.893 13.895 9.893 13.341 6.708 13.341 0.56 0.241z"/>
        <path id="4jkrmuvceU" d="M4.053 0.551L0.028 4.842 0.028 17.71 4.053 22 12.412 22 12.585 21.447 4.606 21.447 0.581 17.157 0.581 4.289 4.087 0.551z"/>
        <path id="khdmvkqgoW" d="M1.552 0.507L0.442 1.097 0.28 1.442 0.998 1.061 4.953 1.061 7.918 2.132 7.652 1.282 5.507 0.507z"/>
        <path id="vs2t9wna9Y" d="M0.529 0.063L0.529 0.616 4.687 0.616 4.975 0.922 4.975 7.97 4.4 10.421 9.864 10.421 9.734 9.868 4.953 9.868 5.528 7.417 5.528 0.369 5.24 0.063z"/>
        <path id="hosssgvw9aa" d="M0.347 0.551L0.922 3.002 0.922 7.497 1.476 7.497 1.476 2.448 1.031 0.551z"/>
        <path id="xwbjg9fjiac" d="M0.409 0.551L0.984 3.002 0.984 19.549 0.409 22 5.873 22 5.744 21.447 0.962 21.447 1.537 18.996 1.537 2.448 1.092 0.551z"/>
    </defs>
    <g fill="none" fill-rule="evenodd">
        <g>
            <g>
                <g>
                    <g>
                        <g>
                            <path fill="#000" d="M55.885 11.467l-.125-.667.049-.007c.446-.083.571-.091.571-1.19V7.43l-.125-.323c-.008-.027-1.03-2.596-1.245-3.162-.19-.509-.308-.61-.588-.671l-.05-.008.114-.668h2.62l.18.67-.056.011c-.162.028-.284.068-.337.157-.063.11-.04.314.077.641.092.24.19.451.289.729.149.409.298.833.41 1.134.183-.52.509-1.455.655-1.92.098-.314.115-.519.044-.618-.062-.092-.198-.102-.356-.114l-.052-.002.092-.688h2.04l.1.684-.08.009c-.285.033-.498.056-.782.856-.353.994-1.146 3.13-1.197 3.28v2.175c0 1.097.118 1.099.571 1.193l.047.01-.108.66h-2.758zM33.932 11.556c-1.194 0-2.415-.271-2.415-2.287V4.505c0-1.163-.192-1.144-.482-1.211l-.12-.03.133-.665h2.722l.133.67-.127.025c-.335.069-.497.193-.497 1.076v5.126c0 .897.284 1.046.915 1.046.627 0 .918-.293.918-.917v-5.12c0-1.188-.228-1.167-.466-1.21l-.125-.022.122-.674h2.136l.136.673-.127.023c-.33.06-.425.17-.425 1.21v4.757c0 1.524-.82 2.294-2.43 2.294M44.004 12.66c-1.887 0-2.553-1.137-3.014-2.975l-.127-.512-.01-.042c-.185-.756-.334-1.288-.464-1.587-.15-.342-.34-.39-.367-.395H39.7l-.004 2.309c0 1.123.113 1.26.478 1.326l.13.021-.136.674h-2.632l-.127-.68.126-.024c.322-.067.476-.08.476-1.19V4.503c0-1.126-.174-1.147-.478-1.209l-.127-.025.129-.677h2.904c1.566 0 2.395.546 2.395 1.94 0 1.054-.964 1.84-1.628 2.17.258.202.471.296.668.296h.027l.081-.004.039.07c.164.301.304.89.466 1.573l.014.056c.028.125.059.252.091.382.344 1.417.607 2.093.972 2.493.269.292.596.43 1.025.43.198 0 .437-.054.584-.108l.083-.032-.143.592-.017.012c-.018.009-.369.198-1.093.198m-2.806-8.055c0-.763-.31-.99-.69-1.096-.12-.034-.456-.03-.8-.03h-.011l.004 2.684s1.497-.047 1.497-1.558" transform="translate(-113 -22) translate(16.742 22.233) translate(96.258) translate(60.79 .4)"/>
                            <g transform="translate(-113 -22) translate(16.742 22.233) translate(96.258) translate(60.79 .4) translate(24.895)">
                                <mask id="y1lgj6uc9b" fill="#fff">
                                    <use xlink:href="#e69hjsabwa"/>
                                </mask>
                                <path fill="#000" d="M2.409 11.478l-.125-.67.046-.008c.417-.095.587-.244.587-1.348V1.188c-.121.003-.454.005-.809.005-.751 0-.96.232-1.051.453-.03.072-.029.124-.029.124l.002.05H.34L.577.178h6.511l.239 1.642h-.684l-.004-.044s-.007-.148-.11-.31c-.14-.223-.476-.273-.97-.273-.36 0-.74-.002-.876-.005v8.264c0 1.104.173 1.253.587 1.348l.047.009-.124.669H2.409z" mask="url(#y1lgj6uc9b)"/>
                            </g>
                            <path fill="#000" d="M44.304 11.48h1.842l.149-.68-.13-.024c-.322-.065-.465-.076-.465-1.204V6.89h.108c.058.016.289.1.436.418.22.486.394 1.11.618 1.897.052.18.105.374.164.575.174.6.208.724.208.837 0 .055 0 .133-.215.158l-.141.017.142.686h7.679l-.065-.172c-.004-.007-.05-.206-.018-.392l.198-1.072c.048-.28.075-.423.075-.578v-.092l-.635-.18v.17c.006.196-.056.328-.105.435l-.013.021c-.294.654-.766.988-1.399.988-.546 0-.79-.135-.79-.935V7.16h.537c.548 0 .647.167.752.418l.041.094.588-.106-.13-1.961-.693-.055.007.143c.007.16-.003.284-.081.357-.089.088-.273.134-.554.134h-.462V3.533h.084c.135 0 .27.003.402.005.703.025.887.204 1.022.71l.032.122.616-.157L53.88 2.6h-4.175l-.13.674.129.027c.309.058.484.077.484 1.205v5.077c0 .456-.018.731-.113.93-.065.135-.262.234-.438.252h-.062c-.469 0-.616-.35-.908-1.298l-.012-.052c-.128-.4-.246-.842-.366-1.274-.164-.6-.318-1.166-.483-1.633l-.039-.115-.115.034c-.037.012-.07.017-.107.017-.207 0-.416-.164-.586-.318.148-.219.662-.992 1.026-1.644.228-.403.442-.72.608-.899.163-.18.294-.26.454-.287l.13-.02-.103-.683h-2.098l-.121.69.143.012c.235.02.284.104.29.235.015.269-.25.7-.45 1.05-.192.336-.42.725-.662 1.05-.152.212-.305.33-.477.366V4.503c0-1.134.148-1.147.457-1.21l.124-.026-.124-.675H43.56l-.131.677.126.026c.334.066.464.073.464 1.208v5.082c.002.638-.008.926-.093 1.048-.144.215-.41.235-.41.235s.263.611.787.611M60.046 11.247c-.11.106-.24.157-.39.157-.16 0-.291-.051-.398-.16-.108-.107-.16-.24-.16-.397 0-.165.054-.3.173-.408.108-.103.236-.153.385-.153.154 0 .284.056.392.166.112.108.167.237.167.395 0 .158-.059.292-.17.4zm-.72-.724c-.088.091-.136.198-.136.324 0 .128.048.239.139.328.088.093.199.137.327.137.123 0 .233-.044.324-.137.09-.092.134-.203.134-.328s-.045-.233-.134-.324c-.091-.095-.2-.141-.324-.141-.132 0-.239.046-.33.141zm.08.635v-.622l.176.001c.076 0 .12.002.127.002.05.003.091.015.124.031.054.032.081.08.081.15 0 .051-.014.089-.042.111-.03.024-.066.038-.108.042.036.007.07.02.087.034.036.031.054.08.054.14v.057s0 .011.004.018l.003.017.006.019h-.154c-.007-.021-.008-.049-.01-.087-.003-.038-.005-.062-.01-.075-.008-.024-.026-.036-.046-.045-.014-.007-.032-.01-.058-.01l-.034-.003h-.034v.22h-.165zm.3-.497c-.023-.009-.054-.014-.095-.014h-.04v.178h.063c.04 0 .068-.006.091-.025.02-.011.031-.036.031-.069 0-.033-.018-.058-.05-.07zM13.853 10.805l.135-.024c.344-.065.49-.142.49-1.273V4.515c0-1.13-.148-1.138-.492-1.203l-.133-.025.14-.69h2.768l.138.69-.134.025c-.341.065-.491.073-.491 1.203v5.03c0 .966.13 1.007.58 1.007l.42-.001c.43-.028.75-.314.958-.986.08-.272.09-.581.022-.81l-.071-.23.724.217.025.06c.087.235.1.556.035.95-.031.202-.142.881-.174 1.104-.035.269.057.435.06.444l.118.192-4.978.005-.14-.692zM19.37 11.497l.114-.732.07-.028c.259-.1.34-.332.34-1.16V4.558c0-1.12-.12-1.17-.494-1.253l-.13-.027.139-.682h2.15c2.795 0 3.785 1.2 3.785 4.58 0 2.243-.376 4.32-3.106 4.32H19.37zm2.303-1.71c-.001.37-.004.612.084.692.052.05.175.073.397.073 1.144 0 1.36-1.17 1.36-3.458 0-3.148-.88-3.522-1.646-3.553l-.099-.001h-.094l-.002 6.247zM10.343 11.497l-.142-.692.135-.024c.343-.066.492-.142.492-1.274v-4.99c0-1.132-.149-1.14-.492-1.205l-.135-.025.142-.69h2.766l.139.69-.133.025c-.342.065-.493.073-.493 1.204v4.991c0 1.132.151 1.208.493 1.274l.133.026-.139.69h-2.766zM2.833 10.965l-1.615-7.63C.949 2.131.859 2.115.422 2.04l-.047-.007.091-.748h2.861l.1.751-.052.004c-.118.015-.2.054-.249.12-.066.095-.08.25-.041.468.068.374.659 3.592.835 4.544l.849-4.51-.01-.05c-.108-.466-.18-.517-.49-.572l-.047-.007.104-.748h2.683l.105.751-.053.004c-.158.025-.26.058-.323.147-.083.131-.083.39.004.825l.821 4.144.684-3.702c.07-.456.094-.884.094-1.044-.001-.307-.07-.318-.364-.359-.027 0-.138-.016-.138-.016l.11-.75h2.182l.135.748-.05.007c-.426.07-.6.1-.807 1.322l-1.506 7.716v.398H6.53v-.5L5.345 5.575l-1.006 5.37-.02.534H2.827l.006-.514z" transform="translate(-113 -22) translate(16.742 22.233) translate(96.258) translate(60.79 .4)"/>
                            <g transform="translate(-113 -22) translate(16.742 22.233) translate(96.258) translate(60.79 .4) translate(123.316 20.263)">
                                <mask id="980mtmad9d" fill="#fff">
                                    <use xlink:href="#7tb7br9n9c"/>
                                </mask>
                                <path fill="#000" d="M3.945 2.467l.067-.27V.986L4.03.85l-.05.135-.573 1.313L2.834.986 2.784.85 2.8.986v1.211l.067.27h-.58l.066-.27V.38L2.287.11h.657l.471 1.069.017.076.017-.076L3.92.11h.648l-.067.27v1.817l.067.27h-.623zM1.64.547h-.304l-.033.034v1.583l.1.303H.697l.101-.303V.581L.763.548H.461L.107.667.292.11h1.515l.185.557-.353-.12z" mask="url(#980mtmad9d)"/>
                            </g>
                        </g>
                        <g transform="translate(-113 -22) translate(16.742 22.233) translate(96.258) translate(0 21.243)">
                            <mask id="svxmtoffmf" fill="#fff">
                                <use xlink:href="#2haolwqrhe"/>
                            </mask>
                            <path d="M0 0.551L0.575 3.002 0.575 19.549 0 22 11.218 22 11.391 21.447 0.553 21.447 1.128 18.996 1.128 2.448 0.683 0.551z" mask="url(#svxmtoffmf)"/>
                        </g>
                        <path fill="#000" d="M6.342 38.239L5.909 37.779 5.909 23.837 6.629 20.774 1.02 20.774 1.13 21.24 1.26 21.794 1.596 23.224 1.596 39.771 1.02 42.222 11.537 42.222 11.917 42.222 12.238 42.222 13.82 37.166 10.801 38.239z" transform="translate(-113 -22) translate(16.742 22.233) translate(96.258)"/>
                        <g transform="translate(-113 -22) translate(16.742 22.233) translate(96.258) translate(15.632 21.243)">
                            <mask id="fhhchboich" fill="#fff">
                                <use xlink:href="#cxlxhzpnog"/>
                            </mask>
                            <path d="M3.833 0.551L0.095 4.534 0.095 18.017 3.833 22 11.311 22 11.83 21.447 4.387 21.447 0.648 17.464 0.648 3.98 3.867 0.551z" mask="url(#fhhchboich)"/>
                        </g>
                        <g transform="translate(-113 -22) translate(16.742 22.233) translate(96.258) translate(21.421 24.716)">
                            <mask id="u1xsf6mzaj" fill="#fff">
                                <use xlink:href="#4lutuq44fi"/>
                            </mask>
                            <path d="M1.185 0.2L0.365 0.638 0.204 0.982 0.632 0.754 2.934 0.754 4.084 1.367 4.659 2.593 4.659 12.704 4.383 13.295 4.774 13.087 5.212 12.151 5.212 2.04 4.637 0.813 3.487 0.2z" mask="url(#u1xsf6mzaj)"/>
                        </g>
                        <path fill="#000" d="M27.1 36.4l-.575 1.227-.33.176-.392.208-.428.229h-2.302l-1.15-.613-.575-1.226V26.289l.277-.59.161-.345.137-.29 1.15-.615h2.302l1.15.614.576 1.226V36.4zm-6.614-15.626l-.44.466-.519.554-2.78 2.962V38.24l3.739 3.983H27.963l3.739-3.983V24.756l-3.74-3.982h-7.476z" transform="translate(-113 -22) translate(16.742 22.233) translate(96.258)"/>
                        <g transform="translate(-113 -22) translate(16.742 22.233) translate(96.258) translate(34.158 21.243)">
                            <mask id="ofazjk6yul" fill="#fff">
                                <use xlink:href="#a7lcvbcyuk"/>
                            </mask>
                            <path d="M0.219 0.551L0.938 3.002 0.938 19.549 0.362 22 5.252 22 5.122 21.447 0.916 21.447 1.491 18.996 1.491 2.448 0.934 0.551z" mask="url(#ofazjk6yul)"/>
                        </g>
                        <g transform="translate(-113 -22) translate(16.742 22.233) translate(96.258) translate(44.579 21.243)">
                            <mask id="8f1khol7on" fill="#fff">
                                <use xlink:href="#14kjw02com"/>
                            </mask>
                            <path d="M0.297 0.551L0.872 3.002 0.872 9.001 1.426 10.179 1.426 2.448 0.98 0.551z" mask="url(#8f1khol7on)"/>
                        </g>
                        <g transform="translate(-113 -22) translate(16.742 22.233) translate(96.258) translate(39.368 29.348)">
                            <mask id="bkirapndop" fill="#fff">
                                <use xlink:href="#4okr0zk41o"/>
                            </mask>
                            <path d="M0.488 1.974L6.083 13.895 9.822 13.895 9.822 13.341 6.636 13.341 0.488 0.241z" mask="url(#bkirapndop)"/>
                        </g>
                        <path fill="#000" d="M46.006 21.24L46.136 21.793 46.472 23.224 46.472 31.498 46.616 33.03 46.041 31.498 46.005 31.421 45.451 30.243 41.005 20.773 35.396 20.773 35.533 21.24 35.696 21.793 36.116 23.224 36.116 39.772 35.54 42.222 39.171 42.222 39.854 42.222 40.43 42.222 39.856 39.772 39.856 31.322 39.856 29.59 39.856 29.046 39.712 27.514 40.288 29.046 46.472 42.222 49.19 42.222 49.744 42.222 50.21 42.222 50.21 23.224 50.786 20.773 45.897 20.773z" transform="translate(-113 -22) translate(16.742 22.233) translate(96.258)"/>
                        <g transform="translate(-113 -22) translate(16.742 22.233) translate(96.258) translate(59.632 24.716)">
                            <mask id="3u41rvzlbr" fill="#fff">
                                <use xlink:href="#8i96ius8fq"/>
                            </mask>
                            <path d="M1.284 0.507L0.178 1.097 0.016 1.442 0.731 1.061 4.673 1.061 7.635 2.132 7.369 1.282 5.226 0.507z" mask="url(#3u41rvzlbr)"/>
                        </g>
                        <g transform="translate(-113 -22) translate(16.742 22.233) translate(96.258) translate(61.947 31.085)">
                            <mask id="52kuhwiezt" fill="#fff">
                                <use xlink:href="#64fw8hcr8s"/>
                            </mask>
                            <path d="M0.574 0.515L1.723 2.965 1.723 7.154 1.852 7.154 2.276 6.702 2.276 2.412 1.387 0.515z" mask="url(#52kuhwiezt)"/>
                        </g>
                        <g transform="translate(-113 -22) translate(16.742 22.233) translate(96.258) translate(53.263 25.295)">
                            <mask id="44r2rp973v" fill="#fff">
                                <use xlink:href="#kmgulxv1cu"/>
                            </mask>
                            <path d="M0.34 0.79L0.34 13.964 4.08 17.947 11.271 17.947 11.79 17.394 4.634 17.394 0.893 13.411 0.893 0.236z" mask="url(#44r2rp973v)"/>
                        </g>
                        <path fill="#000" d="M69.868 30.579L63.542 30.579 63.761 31.046 64.02 31.599 64.69 33.03 64.69 37.32 63.828 38.238 63.799 38.238 63.67 38.238 60.952 38.238 59.801 37.626 59.226 36.401 59.226 27.054 59.647 26.157 59.809 25.813 59.945 25.522 61.383 24.756 65.324 24.756 66.776 25.282 67.595 25.578 68.287 25.829 66.705 20.773 58.651 20.773 58.212 21.24 57.693 21.793 54.623 25.064 54.623 38.238 58.364 42.222 65.492 42.222 65.526 42.222 65.554 42.222 69.293 38.238 69.006 36.401 69.006 32.417z" transform="translate(-113 -22) translate(16.742 22.233) translate(96.258)"/>
                        <g transform="translate(-113 -22) translate(16.742 22.233) translate(96.258) translate(72.368 21.243)">
                            <mask id="h42rey7d7x" fill="#fff">
                                <use xlink:href="#03r87auhww"/>
                            </mask>
                            <path d="M0.03 0.551L0.606 3.002 0.606 19.549 0.03 22 11.537 22 12.056 21.447 0.584 21.447 1.159 18.995 1.159 2.448 0.713 0.551z" mask="url(#h42rey7d7x)"/>
                        </g>
                        <g transform="translate(-113 -22) translate(16.742 22.233) translate(96.258) translate(78.158 24.716)">
                            <mask id="ijooqvf3mz" fill="#fff">
                                <use xlink:href="#4pk9bnmhcy"/>
                            </mask>
                            <path d="M0.151 0.047L0.151 0.6 2.871 0.6 4.021 1.214 4.597 2.44 4.597 3.36 4.32 3.948 4.711 3.739 5.15 2.806 5.15 1.886 4.574 0.66 3.424 0.047z" mask="url(#ijooqvf3mz)"/>
                        </g>
                        <g transform="translate(-113 -22) translate(16.742 22.233) translate(96.258) translate(78.158 32.821)">
                            <mask id="oclnjhpssB" fill="#fff">
                                <use xlink:href="#v87cz8mz8A"/>
                            </mask>
                            <path d="M0.151 0.216L0.151 0.768 2.582 0.768 4.021 1.534 4.597 2.76 4.597 4.6 4.321 5.187 4.711 4.98 5.15 4.046 5.15 2.207 4.574 0.981 3.135 0.216z" mask="url(#oclnjhpssB)"/>
                        </g>
                        <path fill="#000" d="M83.775 27.055l-.576 1.224-.33.176-.391.209-.43.23h-3.45l-.29-.307v-3.984l.29-.307h3.45l1.151.613.576 1.227v.92zm0 9.346l-.576 1.224-.33.176-.39.208-.718.383H78.74l-.432-.46v-5.055l.29-.307h3.163l1.438.766.576 1.226v1.84zm4.314-8.122v-4.136l-3.164-3.37H73.42l.11.467.13.553.335 1.431V39.77l-.575 2.452h11.507l3.45-3.677v-5.362l-2.444-2.604 2.157-2.3z" transform="translate(-113 -22) translate(16.742 22.233) translate(96.258)"/>
                        <g transform="translate(-113 -22) translate(16.742 22.233) translate(96.258) translate(91.474 21.243)">
                            <mask id="xbnbeyousD" fill="#fff">
                                <use xlink:href="#1d3xa2k61C"/>
                            </mask>
                            <path d="M0.009 0.551L0.584 3.002 0.584 19.549 0.009 22 5.475 22 5.345 21.447 0.562 21.447 1.137 18.995 1.137 2.448 0.692 0.551z" mask="url(#xbnbeyousD)"/>
                        </g>
                        <g transform="translate(-113 -22) translate(16.742 22.233) translate(96.258) translate(97.263 33.98)">
                            <mask id="ta2yn81yiF" fill="#fff">
                                <use xlink:href="#f6tft0y1pE"/>
                            </mask>
                            <path d="M0.13 0.436L0.13 0.99 1.554 0.99 2.129 1.296 4.575 9.263 10.04 9.263 9.739 8.71 5.128 8.71 2.682 0.743 2.107 0.436z" mask="url(#ta2yn81yiF)"/>
                        </g>
                        <g transform="translate(-113 -22) translate(16.742 22.233) translate(96.258) translate(97.263 24.716)">
                            <mask id="7m9e7g7gvH" fill="#fff">
                                <use xlink:href="#a8e4zzqtbG"/>
                            </mask>
                            <path d="M0.13 0.2L0.13 0.754 2.849 0.754 4.287 1.521 4.861 2.746 4.861 4.585 4.585 5.175 4.976 4.965 5.415 4.032 5.415 2.193 4.839 0.967 3.402 0.2z" mask="url(#7m9e7g7gvH)"/>
                        </g>
                        <path fill="#000" d="M103.145 28.281l-.576 1.224-.33.176-.391.21-.716.381H97.68l-.286-.307V24.756l.286-.306h3.452l1.437.766.576 1.226v1.84zm1.44 4.749l3.162-3.372V24.45l-3.451-3.677H92.503l.11.467.129.554.336 1.43V39.77l-.575 2.452h5.466l-.575-2.452v-5.515l.286-.306h2.157l.576.306 2.445 7.967h5.465l-1.582-2.912-2.157-6.28z" transform="translate(-113 -22) translate(16.742 22.233) translate(96.258)"/>
                        <g transform="translate(-113 -22) translate(16.742 22.233) translate(96.258) translate(115.79 37.453)">
                            <mask id="gkcx6w2gbJ" fill="#fff">
                                <use xlink:href="#4rslzozg2I"/>
                            </mask>
                            <path d="M0.599 0.026L0.469 0.58 5.367 0.58 5.656 0.886 6.231 3.338 5.943 5.789 11.84 5.789 11.581 5.236 6.496 5.236 6.785 2.784 6.209 0.333 5.921 0.026z" mask="url(#gkcx6w2gbJ)"/>
                        </g>
                        <g transform="translate(-113 -22) translate(16.742 22.233) translate(96.258) translate(109.421 21.243)">
                            <mask id="dyddi7tsmL" fill="#fff">
                                <use xlink:href="#yoacdtujnK"/>
                            </mask>
                            <path d="M5.409 0.551L5.84 2.542 1.526 19.549 0.376 22 5.696 22 5.631 21.447 0.929 21.447 2.08 18.995 6.394 1.989 6.082 0.551z" mask="url(#dyddi7tsmL)"/>
                        </g>
                        <g transform="translate(-113 -22) translate(16.742 22.233) translate(96.258) translate(118.684 25.295)">
                            <mask id="uja8zhtqaN" fill="#fff">
                                <use xlink:href="#420ljl3u7M"/>
                            </mask>
                            <path d="M0.136 1.594L1.593 8.04 2.272 8.04 0.475 0.093z" mask="url(#uja8zhtqaN)"/>
                        </g>
                        <path fill="#000" d="M121.17 33.336h-3.451l-.287-.306 1.388-6.141.34-1.501.142-.632.143-.92.144.92 1.87 8.274-.288.306zm2.016-10.571l.43-1.991h-7.765l.1.466.12.553.21.972-4.313 17.005-1.151 2.453H116.137l-.286-2.453.407-1.738.13-.553.038-.16.286-.306h5.465l.289.306.575 2.451-.288 2.453H128.65l-1.15-2.453-4.314-17.005z" transform="translate(-113 -22) translate(16.742 22.233) translate(96.258)"/>
                        <g transform="translate(-113 -22) translate(16.742 22.233) translate(96.258) translate(130.263 21.243)">
                            <mask id="vhxgyno1uP" fill="#fff">
                                <use xlink:href="#c0e3yahx3O"/>
                            </mask>
                            <path d="M0.292 0.551L1.011 3.002 1.011 19.549 0.436 22 5.325 22 5.195 21.447 0.989 21.447 1.565 18.996 1.565 2.448 1.008 0.551z" mask="url(#vhxgyno1uP)"/>
                        </g>
                        <g transform="translate(-113 -22) translate(16.742 22.233) translate(96.258) translate(140.684 21.243)">
                            <mask id="ocs0p5ho4R" fill="#fff">
                                <use xlink:href="#45lylv1c4Q"/>
                            </mask>
                            <path d="M0.371 0.551L0.944 3.002 0.944 9 1.498 10.179 1.498 2.448 1.054 0.551z" mask="url(#ocs0p5ho4R)"/>
                        </g>
                        <g transform="translate(-113 -22) translate(16.742 22.233) translate(96.258) translate(135.474 29.348)">
                            <mask id="wi4c15d0xT" fill="#fff">
                                <use xlink:href="#do5nd30tyS"/>
                            </mask>
                            <path d="M0.56 1.974L6.155 13.895 9.893 13.895 9.893 13.341 6.708 13.341 0.56 0.241z" mask="url(#wi4c15d0xT)"/>
                        </g>
                        <path fill="#000" d="M142.184 21.24L142.314 21.793 142.649 23.224 142.649 31.498 142.793 33.03 142.217 31.498 142.182 31.421 141.629 30.243 137.184 20.773 131.575 20.773 131.712 21.24 131.875 21.793 132.294 23.224 132.294 39.772 131.719 42.222 135.349 42.222 136.033 42.222 136.609 42.222 136.033 39.772 136.033 31.322 136.033 29.59 136.033 29.046 135.889 27.514 136.464 29.046 142.649 42.222 145.367 42.222 145.92 42.222 146.388 42.222 146.388 23.224 146.963 20.773 142.075 20.773z" transform="translate(-113 -22) translate(16.742 22.233) translate(96.258)"/>
                        <g transform="translate(-113 -22) translate(16.742 22.233) translate(96.258) translate(149.368 21.243)">
                            <mask id="ktdtnsphtV" fill="#fff">
                                <use xlink:href="#4jkrmuvceU"/>
                            </mask>
                            <path d="M4.053 0.551L0.028 4.842 0.028 17.71 4.053 22 12.412 22 12.585 21.447 4.606 21.447 0.581 17.157 0.581 4.289 4.087 0.551z" mask="url(#ktdtnsphtV)"/>
                        </g>
                        <g transform="translate(-113 -22) translate(16.742 22.233) translate(96.258) translate(155.158 24.716)">
                            <mask id="s2z74jw4yX" fill="#fff">
                                <use xlink:href="#khdmvkqgoW"/>
                            </mask>
                            <path d="M1.552 0.507L0.442 1.097 0.28 1.442 0.998 1.061 4.953 1.061 7.918 2.132 7.652 1.282 5.507 0.507z" mask="url(#s2z74jw4yX)"/>
                        </g>
                        <path fill="#000" d="M157.176 38.239L155.737 37.473 155.017 35.941 155.017 27.055 155.438 26.158 155.6 25.813 155.737 25.522 157.176 24.756 161.132 24.756 162.585 25.282 163.405 25.578 164.096 25.828 162.514 20.774 154.442 20.774 154.004 21.24 153.484 21.794 150.417 25.064 150.417 37.932 154.442 42.222 162.1 42.222 162.48 42.222 162.801 42.222 164.383 37.166 161.363 38.239z" transform="translate(-113 -22) translate(16.742 22.233) translate(96.258)"/>
                        <g transform="translate(-113 -22) translate(16.742 22.233) translate(96.258) translate(171.368 32.821)">
                            <mask id="bre1dfq6kZ" fill="#fff">
                                <use xlink:href="#vs2t9wna9Y"/>
                            </mask>
                            <path d="M0.529 0.063L0.529 0.616 4.687 0.616 4.975 0.922 4.975 7.97 4.4 10.421 9.864 10.421 9.734 9.868 4.953 9.868 5.528 7.417 5.528 0.369 5.24 0.063z" mask="url(#bre1dfq6kZ)"/>
                        </g>
                        <g transform="translate(-113 -22) translate(16.742 22.233) translate(96.258) translate(175.421 21.243)">
                            <mask id="tr76784q5ab" fill="#fff">
                                <use xlink:href="#hosssgvw9aa"/>
                            </mask>
                            <path d="M0.347 0.551L0.922 3.002 0.922 7.497 1.476 7.497 1.476 2.448 1.031 0.551z" mask="url(#tr76784q5ab)"/>
                        </g>
                        <g transform="translate(-113 -22) translate(16.742 22.233) translate(96.258) translate(165.579 21.243)">
                            <mask id="pt2gd0vytad" fill="#fff">
                                <use xlink:href="#xwbjg9fjiac"/>
                            </mask>
                            <path d="M0.409 0.551L0.984 3.002 0.984 19.549 0.409 22 5.873 22 5.744 21.447 0.962 21.447 1.537 18.996 1.537 2.448 1.092 0.551z" mask="url(#pt2gd0vytad)"/>
                        </g>
                        <path fill="#000" d="M181.678 23.224L182.253 20.774 176.788 20.774 176.898 21.24 177.028 21.793 177.363 23.224 177.363 28.433 177.075 28.74 176.897 28.74 176.343 28.74 172.186 28.74 171.897 28.433 171.897 23.224 172.473 20.774 167.008 20.774 167.118 21.24 167.247 21.793 167.583 23.224 167.583 39.771 167.008 42.222 171.213 42.222 171.896 42.222 172.473 42.222 171.897 39.771 171.897 33.438 171.897 32.884 171.897 32.723 172.186 32.417 177.075 32.417 177.363 32.723 177.363 39.771 176.788 42.222 180.993 42.222 181.676 42.222 182.253 42.222 181.678 39.771z" transform="translate(-113 -22) translate(16.742 22.233) translate(96.258)"/>
                    </g>
                </g>
            </g>
        </g>
    </g>
</svg>
