<?xml version="1.0" encoding="UTF-8"?>
<svg width="152px" height="47px" viewBox="0 0 152 47" version="1.1" xmlns="http://www.w3.org/2000/svg" xmlns:xlink="http://www.w3.org/1999/xlink">
    <!-- Generator: Sketch 51.3 (57544) - http://www.bohemiancoding.com/sketch -->
    <title>Fill 1 Copy</title>
    <desc>Created with Sketch.</desc>
    <defs></defs>
    <g id="Page-1" stroke="none" stroke-width="1" fill="none" fill-rule="evenodd">
        <g id="Artboard-Copy-8" transform="translate(-1792.000000, -807.000000)" fill="#caa04a">
            <path d="M1929.68683,819.805821 C1929.68683,816.953677 1932.06726,815.934977 1934.30176,815.934977 C1936.75248,815.934977 1938.43225,816.738842 1939.90761,817.444263 L1940.05622,817.521495 L1941.72418,818.313939 L1941.78695,816.903639 L1942.20059,809.828757 L1942.21025,809.619904 L1941.22256,809.246797 C1939.97789,808.766001 1937.39091,807.772864 1933.84199,807.772864 C1930.55971,807.772864 1927.55909,808.924272 1925.38789,811.013343 C1923.01497,813.2993 1921.76278,816.561534 1921.76278,820.443256 C1921.76278,823.431372 1923.46884,828.003286 1928.26994,831.87957 C1928.26458,831.87957 1931.20779,834.377643 1931.20779,834.377643 C1934.57377,837.135694 1935.97885,838.629208 1935.97885,840.704681 C1935.97885,844.49231 1933.30227,845.84115 1931.00983,845.84115 C1927.52153,845.84115 1924.8412,843.960933 1924.10566,843.382781 L1922.66034,842.256391 L1922.19359,851.603634 L1922.59596,851.904947 C1924.49999,853.296754 1927.39545,854 1931.21369,854 C1934.93805,854 1938.08674,852.794202 1940.33842,850.519123 C1942.70007,848.127108 1944,844.559752 1944,840.465371 C1944,835.215229 1941.23383,832.003032 1937.07491,828.804976 C1937.08618,828.816398 1933.70089,825.854389 1933.70089,825.854389 L1933.68962,825.840792 L1933.6746,825.833177 C1931.69386,824.466933 1929.68683,821.956894 1929.68683,819.805821 Z M1909.26994,853.532257 L1918.20206,853.532257 L1906.70227,807 L1897.55824,832.22385 L1888.89329,807 L1876.8613,853.532257 L1885.82615,853.532257 L1890.39924,835.568212 L1897.30126,853.682914 L1904.90287,835.382746 L1909.26994,853.532257 Z M1851.83592,853.457201 L1872.8569,853.457201 L1872.8569,845.081884 L1860.46706,845.081884 L1860.46706,808.31947 L1851.83592,808.31947 L1851.83592,853.457201 Z M1828.00745,839.172551 L1830.51021,830.453498 L1832.83914,839.172551 L1828.00745,839.172551 Z M1830.80152,807 L1814.90998,853.532257 L1823.87644,853.532257 L1825.81319,846.803286 L1834.8746,846.803286 L1836.67615,853.532257 L1845.60827,853.532257 L1830.80152,807 Z M1800.18478,831.413458 L1800.18478,816.706208 C1806.27347,816.586553 1808.61957,819.616548 1808.61957,823.805566 C1808.61957,827.997304 1806.51704,831.601099 1800.18478,831.413458 Z M1800.61398,808.134005 L1792,808.134005 L1792,853.570873 L1800.44659,853.570873 L1800.44659,839.85241 C1809.61638,839.846971 1816.25766,832.727489 1816.25766,823.991576 C1816.25766,815.243152 1809.24137,808.134005 1800.61398,808.134005 Z" id="Fill-1-Copy"></path>
        </g>
    </g>
</svg>