<svg viewBox="0 0 142 36" fill="none" xmlns="http://www.w3.org/2000/svg" width="128" height="33.352112676056336" class="fill-current w-full"><g clip-path="url(#clip0_4791_36180)"><path d="M18.8496 24.9072L15.9028 19.1698C14.6915 16.5451 13.7564 15.781 12.3681 15.3707C16.4199 14.7481 19.643 12.7107 19.643 8.0768C19.643 3.68348 16.8733 1.02344 10.6751 1.02344H0.410852C0.184175 1.02344 0 1.20738 0 1.43376V1.44791C0 1.6743 0.177091 1.85116 0.403768 1.85824C3.25848 1.91484 3.66933 2.5657 3.66933 4.58903V25.1195C3.66933 27.1357 3.25848 27.7937 0.403768 27.8503C0.177091 27.8503 0 28.0342 0 28.2606V28.2748C0 28.5011 0.184175 28.6851 0.410852 28.6851H10.8522C11.0788 28.6851 11.263 28.5011 11.263 28.2748V28.2606C11.263 28.0342 11.0859 27.8574 10.8592 27.8503C7.99744 27.7937 7.55825 27.1428 7.55825 25.1195V3.71886C7.55825 3.30146 7.72826 2.96187 8.18162 2.78501C8.91123 2.54447 9.63376 2.43836 10.3634 2.43836C13.721 2.43836 15.662 4.40509 15.662 8.17585C15.662 12.3569 13.2677 14.1963 9.94544 14.2529C9.81085 14.2529 9.61251 14.2529 9.38584 14.2529C8.8829 14.2529 8.6208 14.833 8.94665 15.2151C10.2713 16.7715 11.8793 19.6508 14.4506 24.7516C16.1861 28.1899 16.7032 28.678 21.3147 28.678H22.6039C22.8306 28.678 23.0148 28.4941 23.0148 28.2677V28.2535C23.0148 28.0342 22.8377 27.8503 22.6181 27.8432C20.4222 27.7583 19.8767 26.9023 18.8567 24.9143L18.8496 24.9072Z" fill="currentColor"></path></g><path d="M140.993 10.8059V10.8271C140.993 11.0396 140.83 11.2167 140.618 11.2309C139.494 11.3159 138.935 11.8684 138.377 13.7952L134.079 28.4583C133.301 31.1005 132.806 32.8998 131.718 34.3661C131.626 34.4865 131.435 34.3732 131.499 34.2386C132.283 32.581 132.601 30.4063 131.746 27.3745L127.483 13.7881C126.854 11.8401 126.289 11.2947 125.045 11.2167C124.833 11.2026 124.67 11.0255 124.67 10.813V10.7917C124.67 10.565 124.854 10.3809 125.08 10.3809H132.305C132.531 10.3809 132.715 10.565 132.715 10.7917V10.8059C132.715 11.0255 132.538 11.2026 132.319 11.2167C130.452 11.2734 130.488 11.7976 131.067 13.7952L133.952 23.9035H134.121L136.977 13.7952C137.522 11.8047 137.557 11.2805 135.747 11.2238C135.74 11.2238 135.733 11.2238 135.726 11.2238C135.528 11.2167 135.373 11.068 135.337 10.8838C135.337 10.8625 135.337 10.8342 135.337 10.813C135.337 10.5863 135.521 10.4021 135.747 10.4021H140.59C140.816 10.4021 141 10.5863 141 10.813L140.993 10.8059Z" fill="currentColor"></path><path d="M35.0913 21.2612C35.3316 21.2612 35.5154 21.4737 35.4801 21.7145C34.6883 26.9281 32.3979 29.1736 29.2592 29.1736C25.3783 29.1736 22.9395 25.4972 22.9395 19.8161C22.9395 14.135 25.343 9.77148 29.436 9.77148C33.529 9.77148 35.3457 13.5542 35.3457 18.5765H26.2761V18.6473C26.2761 23.3296 27.7182 26.6235 30.5741 26.6235C32.0798 26.6235 33.8188 25.483 34.6671 21.5728C34.7025 21.3887 34.865 21.2612 35.0488 21.2612H35.0983H35.0913ZM26.2973 17.1668H32.0374C32.0374 13.8658 31.4507 11.2165 29.4218 11.2165C27.393 11.2165 26.5023 13.7242 26.2973 17.1668Z" fill="currentColor"></path><path d="M59.7689 25.0794C59.7689 27.1337 60.0375 27.7216 61.7836 27.7924C62.0027 27.7995 62.1724 27.9837 62.1724 28.2033V28.2174C62.1724 28.4441 61.9886 28.6283 61.7624 28.6283H54.3963C54.1701 28.6283 53.9863 28.4441 53.9863 28.2174V28.2033C53.9863 27.9837 54.156 27.8066 54.3751 27.7924C56.1283 27.7216 56.4252 27.1407 56.4252 25.0794V5.19559C56.4252 3.14133 56.4252 2.61714 54.7427 3.39635C54.5306 3.49552 54.2832 3.39635 54.1843 3.19092C54.0924 2.98549 54.1843 2.74465 54.3822 2.64548L58.8711 0.456632C59.0973 0.350377 59.3659 0.385795 59.5427 0.555803L59.5639 0.577054C59.684 0.690392 59.7547 0.853316 59.7547 1.02332V25.0794H59.7689Z" fill="currentColor"></path><path d="M93.8217 21.2612C94.0621 21.2612 94.2459 21.4737 94.2105 21.7145C93.4188 26.9281 91.1284 29.1736 87.9897 29.1736C84.1088 29.1736 81.6699 25.4972 81.6699 19.8161C81.6699 14.135 84.0734 9.77148 88.1664 9.77148C92.2595 9.77148 94.0762 13.5542 94.0762 18.5765H85.0065V18.6473C85.0065 23.3296 86.4486 26.6235 89.3046 26.6235C90.8103 26.6235 92.5493 25.483 93.3976 21.5728C93.4329 21.3887 93.5955 21.2612 93.7793 21.2612H93.8288H93.8217ZM85.0277 17.1668H90.7679C90.7679 13.8658 90.1811 11.2165 88.1523 11.2165C86.1235 11.2165 85.2328 13.7242 85.0277 17.1668Z" fill="currentColor"></path><path d="M101.965 24.8751V10.5732C101.965 10.3465 101.866 10.1411 101.696 9.99234C101.484 9.81525 101.187 9.76566 100.933 9.87192L99.0171 10.6582L96.6843 11.5932C96.4581 11.6853 96.352 11.9403 96.451 12.167C96.5429 12.3795 96.7832 12.4787 97.0024 12.3937C98.6778 11.7562 98.6778 12.3229 98.6778 14.4763V25.0663C98.6778 27.1135 98.3809 27.7015 96.7338 27.7794C96.5146 27.7865 96.3379 27.9706 96.3379 28.1902V28.2044C96.3379 28.4311 96.5217 28.6153 96.7479 28.6153H105.21C105.436 28.6153 105.62 28.4311 105.62 28.2044V28.1548C105.62 27.9281 105.436 27.751 105.217 27.744C102.446 27.6944 101.979 27.0923 101.979 24.8609L101.965 24.8751Z" fill="currentColor"></path><path d="M116.322 24.8751V10.5732C116.322 10.3465 116.223 10.1411 116.054 9.99234C115.842 9.81525 115.545 9.76566 115.29 9.87192L113.375 10.6582L111.042 11.5932C110.815 11.6853 110.709 11.9403 110.808 12.167C110.9 12.3795 111.141 12.4787 111.36 12.3937C113.035 11.7562 113.035 12.3229 113.035 14.4763V25.0663C113.035 27.1135 112.738 27.7015 111.091 27.7794C110.872 27.7865 110.695 27.9706 110.695 28.1902V28.2044C110.695 28.4311 110.879 28.6153 111.105 28.6153H119.567C119.793 28.6153 119.977 28.4311 119.977 28.2044V28.1548C119.977 27.9281 119.793 27.751 119.574 27.744C116.803 27.6944 116.336 27.0923 116.336 24.8609L116.322 24.8751Z" fill="currentColor"></path><path d="M65.3187 26.7941V4.96229C65.3187 2.8372 65.3824 2.30592 63.7282 3.07804C63.5303 3.17013 63.2899 3.09221 63.1839 2.89386C63.0778 2.68844 63.1556 2.43343 63.3677 2.32717L65.6722 1.19379L67.8636 0.0674886C68.0969 -0.0529334 68.3797 -0.0104316 68.5635 0.180827C68.6766 0.294165 68.7402 0.450006 68.7402 0.605846V12.7756H68.8816C70.1752 10.8205 71.8082 9.49583 73.9713 9.49583C77.0747 9.49583 79.1318 12.7756 79.1318 18.5275C79.1318 25.0515 76.5162 29.1317 71.7092 29.1317C69.7228 29.1317 67.2133 28.4375 65.3329 26.7941H65.3187ZM68.7402 14.4827V25.7174C69.2986 26.5887 70.3449 27.5308 71.7021 27.5308C74.141 27.5308 75.47 24.4282 75.47 19.1225C75.47 14.2065 74.1763 11.9043 72.197 11.9043C70.8044 11.9043 69.6168 13.0589 68.7473 14.4827H68.7402Z" fill="currentColor"></path><path d="M52.5729 24.7262C52.3608 24.7262 52.1912 24.8891 52.177 25.0946C52.0639 26.9788 51.5337 27.588 50.848 27.588C50.2967 27.588 49.9503 27.1772 49.9503 25.4842L49.9715 15.305C49.9715 10.7147 46.8823 9.77971 44.9665 9.66637C43.8143 9.60262 42.9731 9.70887 42.2308 9.98513C42.0965 10.0347 42.153 10.2401 42.2944 10.2189C44.5636 9.87179 45.8431 11.2248 46.2602 12.1102C46.5712 12.769 46.6419 13.7466 46.6419 15.0712V17.0688C42.7186 18.8255 37.7207 20.7594 37.7207 25.1016C37.7207 27.3401 39.0992 29.1677 41.5451 29.1677C43.991 29.1677 45.8502 27.2692 46.6419 24.032V24.6483C46.6419 27.8572 47.8083 29.1677 49.7806 29.1677C51.9296 29.1677 52.785 27.5384 52.9617 25.1441C52.9758 24.9175 52.7991 24.7191 52.5658 24.7191L52.5729 24.7262ZM46.649 22.2753C45.7512 25.2716 44.2738 26.5538 42.8953 26.5538C41.6865 26.5538 41.0361 25.6187 41.0361 24.1737C41.0361 21.3119 43.8567 19.6543 46.649 18.2092V22.2753Z" fill="currentColor"></path><path d="M103.471 12.1236C103.33 12.1732 103.21 12.0316 103.273 11.897C103.606 11.2028 104.517 9.84979 106.476 9.77896C107.826 9.72937 108.349 10.8344 108.356 11.4294C108.37 12.2653 107.798 13.2995 106.511 13.2712C105.875 13.257 105.288 12.7045 105.026 12.5062C104.701 12.2582 104.489 12.0528 103.987 12.0386C103.796 12.0386 103.613 12.0741 103.464 12.1236H103.471Z" fill="currentColor"></path><path d="M41.037 10.8992C41.0723 10.7576 40.9239 10.6442 40.7966 10.7151C40.1321 11.0976 38.8455 12.1035 38.9233 14.0727C38.9728 15.4257 40.1109 15.8649 40.7047 15.8365C41.5389 15.794 42.5215 15.1423 42.4013 13.8602C42.3447 13.2227 41.7509 12.6843 41.5318 12.4364C41.2632 12.1318 41.044 11.9335 40.9875 11.4305C40.9663 11.2393 40.9875 11.0551 41.037 10.9063V10.8992Z" fill="currentColor"></path><path d="M117.842 12.1236C117.701 12.1732 117.581 12.0316 117.644 11.897C117.977 11.2028 118.889 9.84979 120.847 9.77896C122.197 9.72937 122.72 10.8344 122.727 11.4294C122.741 12.2653 122.169 13.2995 120.882 13.2712C120.246 13.257 119.659 12.7045 119.398 12.5062C119.072 12.2582 118.86 12.0528 118.358 12.0386C118.168 12.0386 117.984 12.0741 117.835 12.1236H117.842Z" fill="currentColor"></path><path d="M130.383 34.8759C130.524 34.9255 130.538 35.1097 130.404 35.1735C129.718 35.5135 128.17 36.0306 126.573 34.883C125.47 34.0897 125.738 32.8996 126.092 32.425C126.587 31.7521 127.675 31.2916 128.679 32.0992C129.174 32.5029 129.301 33.2963 129.386 33.608C129.492 34.0047 129.535 34.2951 129.923 34.6138C130.072 34.7343 130.241 34.8122 130.39 34.8689L130.383 34.8759Z" fill="currentColor"></path><defs><clipPath id="clip0_4791_36180"><rect width="23.0077" height="27.6546" fill="currentColor" transform="translate(0 1.02344)"></rect></clipPath></defs></svg>