<svg height="136.62601" viewBox="0 0 19.815093 3.6532334" width="731.925055" xmlns="http://www.w3.org/2000/svg" xmlns:xlink="http://www.w3.org/1999/xlink"><symbol id="a" overflow="visible"/><symbol id="b" overflow="visible"/><g transform="translate(-265.53399 -217.87644)"><g fill="#fff" transform="matrix(.35277778 0 0 .35277778 -.704178 4.06996)"><use height="100%" width="100%" x="101.121" xlink:href="#a" y="248.14619"/><use height="100%" width="100%" x="102.777" xlink:href="#a" y="248.14619"/></g><path d="m267.28848 219.39617c-.59531-.16812-.77308-.26596-.77308-.49885 0-.16812.14469-.31281.52228-.31281.21635 0 .5333.0386.79788.27974.0234.0234.062.004.0772-.008l.339-.34038c.0193-.0179.01-.0427-.01-.0703-.2577-.33073-.73863-.43684-1.19476-.43684-.6904 0-1.22232.3073-1.22232.89297 0 .60082.41203.86127 1.19062 1.08451.44511.12679.6904.22463.6904.46165 0 .24667-.27837.36242-.62839.36242-.36931 0-.70142-.0785-.97978-.35829-.0138-.0179-.0524-.01-.0717.0138l-.35553.38722c-.01.0221 0 .0455.0152.0593.3266.35002.8351.48507 1.34773.48507.72071 0 1.33945-.3073 1.33945-.96325 0-.63389-.4079-.84749-1.08452-1.03766" fill="#117aca"/><path d="m271.83601 218.06774h-.59945c-.0345 0-.0579.0289-.0579.0469v1.95543c0 .42306-.15434.69316-.68488.69316-.50023 0-.68213-.24116-.68213-.67387v-1.95957c0-.0248-.0193-.062-.0537-.062h-.5898c-.0331 0-.0565.0372-.0565.062v2.0519c0 .78273.51677 1.19752 1.37253 1.19752.84749 0 1.39871-.42444 1.39871-1.2113v-2.05327c0-.0179-.0179-.0469-.0469-.0469" fill="#117aca"/><path d="m274.09599 218.0264c-.85025 0-1.40147.42444-1.40147 1.20992v2.05465c0 .0179.0193.0455.0482.0455h.59944c.0331 0 .0579-.0276.0579-.0455v-1.95681c0-.42306.15296-.69315.68626-.69315.49747 0 .68075.24253.68075.67524v1.95956c0 .0248.0193.0606.0537.0606h.5898c.0331 0 .0579-.0358.0579-.0606v-2.05327c0-.78135-.51814-1.19614-1.37252-1.19614" fill="#117aca"/><path d="m281.58425 218.06774h-.59945c-.0331 0-.0565.0289-.0565.0469v1.95543c0 .42306-.15434.69316-.68764.69316-.49885 0-.68075-.24116-.68075-.67387v-1.95957c0-.0248-.0193-.062-.0524-.062h-.5898c-.0345 0-.0579.0372-.0579.062v2.0519c0 .78273.51814 1.19752 1.37114 1.19752.85025 0 1.40147-.42444 1.40147-1.2113v-2.05327c0-.0179-.0193-.0469-.0482-.0469" fill="#117aca"/><path d="m283.84423 218.0264c-.84887 0-1.40009.42444-1.40009 1.20992v2.05465c0 .0179.0193.0455.0469.0455h.59944c.0345 0 .0579-.0276.0579-.0455v-1.95681c0-.42306.15434-.69315.68489-.69315.50022 0 .68212.24253.68212.67524v1.95956c0 .0248.0193.0606.0537.0606h.5898c.0345 0 .0579-.0358.0579-.0606v-2.05327c0-.78135-.51815-1.19614-1.37253-1.19614" fill="#117aca"/><path d="m278.14604 218.03329h-.0207c-.16812-.004-.23013-.007-.2949-.007-.84887 0-1.40147.42444-1.40147 1.20992v2.05465c0 .0179.0207.0455.0482.0455h.60082c.0331 0 .0565-.0275.0565-.0455v-1.95681c0-.42306.15434-.69315.68488-.69315h.3266c.0592 0 .10473-.0469.10473-.10198v-.40238c0-.0565-.0455-.10336-.10473-.10336" fill="#117aca"/><g fill="#211e1e" transform="matrix(.35277778 0 0 .35277778 95.137057 -45.389735)"><g><use height="100%" width="100%" x="102.0797" xlink:href="#b" y="111.556"/><use height="100%" width="100%" x="103.8397" xlink:href="#b" y="111.556"/></g><use height="100%" width="100%" x="105.5997" xlink:href="#b" y="111.556"/><use height="100%" width="100%" x="527.86389" xlink:href="#b" y="111.556"/><use height="100%" width="100%" x="537.22247" xlink:href="#b" y="183.4561"/><use height="100%" width="100%" x="102.0797" xlink:href="#b" y="246.356"/><use height="100%" width="100%" x="103.8397" xlink:href="#b" y="246.356"/><use height="100%" width="100%" x="102.0797" xlink:href="#b" y="307.25601"/><use height="100%" width="100%" x="103.8397" xlink:href="#b" y="307.25601"/></g></g></svg>